<svg xmlns="http://www.w3.org/2000/svg" xmlns:xlink="http://www.w3.org/1999/xlink" width="500" zoomAndPan="magnify" viewBox="0 0 375 374.999991" height="500" preserveAspectRatio="xMidYMid meet" version="1.0"><defs><g/></defs><rect x="-37.5" width="450" fill="#ffffff" y="-37.499999" height="449.999989" fill-opacity="1"/><rect x="-37.5" width="450" fill="#334155" y="-37.499999" height="449.999989" fill-opacity="1"/><g fill="#7c3aed" fill-opacity="1"><g transform="translate(138.868575, 338.591905)"><g><path d="M 77.90625 -19.5 L 77.90625 0 L 0 0 L 0 -136.421875 L 19.3125 -136.421875 L 19.3125 -19.5 Z M 77.90625 -19.5 "/></g></g></g><g fill="#7c3aed" fill-opacity="1"><g transform="translate(255.78065, 338.591905)"><g><path d="M 19.5 -77.90625 L 77.90625 -77.90625 L 77.90625 -58.40625 L 97.421875 -58.40625 L 97.421875 -19.5 L 77.90625 -19.5 L 77.90625 -58.40625 L 19.5 -58.40625 Z M 19.5 -136.421875 L 77.90625 -136.421875 L 77.90625 -116.921875 L 97.421875 -116.921875 L 97.421875 -97.421875 L 77.90625 -97.421875 L 77.90625 -116.921875 L 19.5 -116.921875 Z M 19.5 -19.5 L 77.90625 -19.5 L 77.90625 0 L 19.5 0 Z M 19.5 -77.90625 L 0 -77.90625 L 0 -116.921875 L 19.5 -116.921875 Z M 19.5 -19.5 L 0 -19.5 L 0 -39 L 19.5 -39 Z M 19.5 -19.5 "/></g></g></g></svg>